<mxfile host="app.diagrams.net" modified="2024-05-24T04:24:38.233Z" agent="Mozilla/5.0 (Windows NT 10.0; Win64; x64) AppleWebKit/537.36 (KHTML, like Gecko) Chrome/124.0.0.0 Safari/537.36" etag="BvIfUe69sxAVqzrrTOOy" version="24.3.1" type="device">
  <diagram name="Page-1" id="16e2658f-23c8-b752-8be9-c03fbebb8bbe">
    <mxGraphModel dx="2074" dy="1106" grid="1" gridSize="10" guides="1" tooltips="1" connect="1" arrows="1" fold="1" page="1" pageScale="1" pageWidth="7000" pageHeight="7000" background="none" math="0" shadow="0">
      <root>
        <mxCell id="0" />
        <mxCell id="1" parent="0" />
        <mxCell id="BNmmFgK4MU3GEjyBa_c--38" style="edgeStyle=orthogonalEdgeStyle;rounded=0;orthogonalLoop=1;jettySize=auto;html=1;exitX=1;exitY=0.5;exitDx=0;exitDy=0;exitPerimeter=0;endArrow=none;endFill=0;strokeColor=#000000;" parent="1" source="6d250d948d6a1778-1" edge="1">
          <mxGeometry relative="1" as="geometry">
            <mxPoint x="260" y="100" as="targetPoint" />
            <Array as="points">
              <mxPoint x="180" y="100" />
            </Array>
          </mxGeometry>
        </mxCell>
        <mxCell id="BNmmFgK4MU3GEjyBa_c--40" style="edgeStyle=orthogonalEdgeStyle;rounded=0;orthogonalLoop=1;jettySize=auto;html=1;exitX=0;exitY=0.5;exitDx=0;exitDy=0;exitPerimeter=0;endArrow=none;endFill=0;strokeColor=#000000;" parent="1" source="6d250d948d6a1778-1" edge="1">
          <mxGeometry relative="1" as="geometry">
            <mxPoint x="260" y="440" as="targetPoint" />
            <Array as="points">
              <mxPoint x="180" y="950" />
              <mxPoint x="260" y="950" />
            </Array>
          </mxGeometry>
        </mxCell>
        <mxCell id="6d250d948d6a1778-1" value="" style="verticalLabelPosition=bottom;shadow=0;dashed=0;align=center;fillColor=#000000;html=1;verticalAlign=top;strokeWidth=1;shape=mxgraph.electrical.miscellaneous.monocell_battery;rounded=1;comic=0;labelBackgroundColor=none;fontFamily=Verdana;fontSize=12;rotation=-90;strokeColor=#000000;" parent="1" vertex="1">
          <mxGeometry x="130" y="460" width="100" height="60" as="geometry" />
        </mxCell>
        <mxCell id="BNmmFgK4MU3GEjyBa_c--37" style="edgeStyle=orthogonalEdgeStyle;rounded=0;orthogonalLoop=1;jettySize=auto;html=1;exitX=0;exitY=0.5;exitDx=0;exitDy=0;exitPerimeter=0;endArrow=none;endFill=0;strokeColor=#000000;" parent="1" source="BNmmFgK4MU3GEjyBa_c--4" edge="1">
          <mxGeometry relative="1" as="geometry">
            <mxPoint x="260" y="100" as="targetPoint" />
          </mxGeometry>
        </mxCell>
        <mxCell id="BNmmFgK4MU3GEjyBa_c--4" value="" style="pointerEvents=1;verticalLabelPosition=bottom;shadow=0;dashed=0;align=center;html=1;verticalAlign=top;shape=mxgraph.electrical.capacitors.capacitor_3;direction=south;strokeColor=#000000;" parent="1" vertex="1">
          <mxGeometry x="240" y="455" width="40" height="70" as="geometry" />
        </mxCell>
        <mxCell id="BNmmFgK4MU3GEjyBa_c--42" value="" style="endArrow=none;html=1;rounded=0;strokeColor=#000000;endFill=0;" parent="1" edge="1">
          <mxGeometry width="50" height="50" relative="1" as="geometry">
            <mxPoint x="260" y="100" as="sourcePoint" />
            <mxPoint x="1310" y="100" as="targetPoint" />
          </mxGeometry>
        </mxCell>
        <mxCell id="BNmmFgK4MU3GEjyBa_c--50" value="" style="endArrow=none;html=1;rounded=0;strokeColor=#000000;endFill=0;startArrow=none;startFill=0;" parent="1" edge="1">
          <mxGeometry width="50" height="50" relative="1" as="geometry">
            <mxPoint x="260" y="950" as="sourcePoint" />
            <mxPoint x="1310" y="950" as="targetPoint" />
          </mxGeometry>
        </mxCell>
        <mxCell id="sTx_IjuxGFLNHT0JRAtc-436" value="" style="group" parent="1" vertex="1" connectable="0">
          <mxGeometry x="880" y="240" width="99.75" height="119" as="geometry" />
        </mxCell>
        <mxCell id="sTx_IjuxGFLNHT0JRAtc-437" value="" style="verticalLabelPosition=bottom;shadow=0;dashed=0;align=center;html=1;verticalAlign=top;shape=mxgraph.electrical.mosfets1.mosfet_ic_n;strokeColor=#000000;" parent="sTx_IjuxGFLNHT0JRAtc-436" vertex="1">
          <mxGeometry y="24" width="71" height="75" as="geometry" />
        </mxCell>
        <mxCell id="sTx_IjuxGFLNHT0JRAtc-438" value="" style="pointerEvents=1;fillColor=strokeColor;verticalLabelPosition=bottom;shadow=0;dashed=0;align=center;html=1;verticalAlign=top;shape=mxgraph.electrical.diodes.diode;rotation=-90;strokeColor=#000000;" parent="sTx_IjuxGFLNHT0JRAtc-436" vertex="1">
          <mxGeometry x="70" y="50" width="40" height="19.5" as="geometry" />
        </mxCell>
        <mxCell id="sTx_IjuxGFLNHT0JRAtc-439" style="edgeStyle=orthogonalEdgeStyle;rounded=0;orthogonalLoop=1;jettySize=auto;html=1;exitX=0.7;exitY=1;exitDx=0;exitDy=0;exitPerimeter=0;entryX=0;entryY=0.5;entryDx=0;entryDy=0;entryPerimeter=0;endArrow=none;endFill=0;" parent="sTx_IjuxGFLNHT0JRAtc-436" source="sTx_IjuxGFLNHT0JRAtc-437" target="sTx_IjuxGFLNHT0JRAtc-438" edge="1">
          <mxGeometry relative="1" as="geometry">
            <Array as="points">
              <mxPoint x="90" y="99" />
            </Array>
          </mxGeometry>
        </mxCell>
        <mxCell id="sTx_IjuxGFLNHT0JRAtc-440" style="edgeStyle=orthogonalEdgeStyle;rounded=0;orthogonalLoop=1;jettySize=auto;html=1;exitX=1;exitY=0.5;exitDx=0;exitDy=0;exitPerimeter=0;entryX=0.7;entryY=0;entryDx=0;entryDy=0;entryPerimeter=0;endArrow=none;endFill=0;" parent="sTx_IjuxGFLNHT0JRAtc-436" source="sTx_IjuxGFLNHT0JRAtc-438" target="sTx_IjuxGFLNHT0JRAtc-437" edge="1">
          <mxGeometry relative="1" as="geometry" />
        </mxCell>
        <mxCell id="sTx_IjuxGFLNHT0JRAtc-441" value="" style="endArrow=none;html=1;rounded=0;" parent="sTx_IjuxGFLNHT0JRAtc-436" edge="1">
          <mxGeometry width="50" height="50" relative="1" as="geometry">
            <mxPoint x="50" as="sourcePoint" />
            <mxPoint x="50" y="20" as="targetPoint" />
          </mxGeometry>
        </mxCell>
        <mxCell id="sTx_IjuxGFLNHT0JRAtc-442" value="" style="endArrow=none;html=1;rounded=0;" parent="sTx_IjuxGFLNHT0JRAtc-436" edge="1">
          <mxGeometry width="50" height="50" relative="1" as="geometry">
            <mxPoint x="50" y="99" as="sourcePoint" />
            <mxPoint x="50" y="119" as="targetPoint" />
          </mxGeometry>
        </mxCell>
        <mxCell id="sTx_IjuxGFLNHT0JRAtc-443" value="" style="group" parent="1" vertex="1" connectable="0">
          <mxGeometry x="880" y="538" width="99.75" height="119" as="geometry" />
        </mxCell>
        <mxCell id="sTx_IjuxGFLNHT0JRAtc-444" value="" style="verticalLabelPosition=bottom;shadow=0;dashed=0;align=center;html=1;verticalAlign=top;shape=mxgraph.electrical.mosfets1.mosfet_ic_n;strokeColor=#000000;" parent="sTx_IjuxGFLNHT0JRAtc-443" vertex="1">
          <mxGeometry y="24" width="71" height="75" as="geometry" />
        </mxCell>
        <mxCell id="sTx_IjuxGFLNHT0JRAtc-445" value="" style="pointerEvents=1;fillColor=strokeColor;verticalLabelPosition=bottom;shadow=0;dashed=0;align=center;html=1;verticalAlign=top;shape=mxgraph.electrical.diodes.diode;rotation=-90;strokeColor=#000000;" parent="sTx_IjuxGFLNHT0JRAtc-443" vertex="1">
          <mxGeometry x="70" y="50" width="40" height="19.5" as="geometry" />
        </mxCell>
        <mxCell id="sTx_IjuxGFLNHT0JRAtc-446" style="edgeStyle=orthogonalEdgeStyle;rounded=0;orthogonalLoop=1;jettySize=auto;html=1;exitX=0.7;exitY=1;exitDx=0;exitDy=0;exitPerimeter=0;entryX=0;entryY=0.5;entryDx=0;entryDy=0;entryPerimeter=0;endArrow=none;endFill=0;" parent="sTx_IjuxGFLNHT0JRAtc-443" source="sTx_IjuxGFLNHT0JRAtc-444" target="sTx_IjuxGFLNHT0JRAtc-445" edge="1">
          <mxGeometry relative="1" as="geometry">
            <Array as="points">
              <mxPoint x="90" y="99" />
            </Array>
          </mxGeometry>
        </mxCell>
        <mxCell id="sTx_IjuxGFLNHT0JRAtc-447" style="edgeStyle=orthogonalEdgeStyle;rounded=0;orthogonalLoop=1;jettySize=auto;html=1;exitX=1;exitY=0.5;exitDx=0;exitDy=0;exitPerimeter=0;entryX=0.7;entryY=0;entryDx=0;entryDy=0;entryPerimeter=0;endArrow=none;endFill=0;" parent="sTx_IjuxGFLNHT0JRAtc-443" source="sTx_IjuxGFLNHT0JRAtc-445" target="sTx_IjuxGFLNHT0JRAtc-444" edge="1">
          <mxGeometry relative="1" as="geometry" />
        </mxCell>
        <mxCell id="sTx_IjuxGFLNHT0JRAtc-448" value="" style="endArrow=none;html=1;rounded=0;" parent="sTx_IjuxGFLNHT0JRAtc-443" edge="1">
          <mxGeometry width="50" height="50" relative="1" as="geometry">
            <mxPoint x="50" as="sourcePoint" />
            <mxPoint x="50" y="20" as="targetPoint" />
          </mxGeometry>
        </mxCell>
        <mxCell id="sTx_IjuxGFLNHT0JRAtc-449" value="" style="endArrow=none;html=1;rounded=0;" parent="sTx_IjuxGFLNHT0JRAtc-443" edge="1">
          <mxGeometry width="50" height="50" relative="1" as="geometry">
            <mxPoint x="50" y="99" as="sourcePoint" />
            <mxPoint x="50" y="119" as="targetPoint" />
          </mxGeometry>
        </mxCell>
        <mxCell id="sTx_IjuxGFLNHT0JRAtc-465" value="" style="group" parent="1" vertex="1" connectable="0">
          <mxGeometry x="1260" y="240" width="99.75" height="119" as="geometry" />
        </mxCell>
        <mxCell id="sTx_IjuxGFLNHT0JRAtc-466" value="" style="verticalLabelPosition=bottom;shadow=0;dashed=0;align=center;html=1;verticalAlign=top;shape=mxgraph.electrical.mosfets1.mosfet_ic_n;strokeColor=#000000;" parent="sTx_IjuxGFLNHT0JRAtc-465" vertex="1">
          <mxGeometry y="24" width="71" height="75" as="geometry" />
        </mxCell>
        <mxCell id="sTx_IjuxGFLNHT0JRAtc-467" value="" style="pointerEvents=1;fillColor=strokeColor;verticalLabelPosition=bottom;shadow=0;dashed=0;align=center;html=1;verticalAlign=top;shape=mxgraph.electrical.diodes.diode;rotation=-90;strokeColor=#000000;" parent="sTx_IjuxGFLNHT0JRAtc-465" vertex="1">
          <mxGeometry x="70" y="50" width="40" height="19.5" as="geometry" />
        </mxCell>
        <mxCell id="sTx_IjuxGFLNHT0JRAtc-468" style="edgeStyle=orthogonalEdgeStyle;rounded=0;orthogonalLoop=1;jettySize=auto;html=1;exitX=0.7;exitY=1;exitDx=0;exitDy=0;exitPerimeter=0;entryX=0;entryY=0.5;entryDx=0;entryDy=0;entryPerimeter=0;endArrow=none;endFill=0;" parent="sTx_IjuxGFLNHT0JRAtc-465" source="sTx_IjuxGFLNHT0JRAtc-466" target="sTx_IjuxGFLNHT0JRAtc-467" edge="1">
          <mxGeometry relative="1" as="geometry">
            <Array as="points">
              <mxPoint x="90" y="99" />
            </Array>
          </mxGeometry>
        </mxCell>
        <mxCell id="sTx_IjuxGFLNHT0JRAtc-469" style="edgeStyle=orthogonalEdgeStyle;rounded=0;orthogonalLoop=1;jettySize=auto;html=1;exitX=1;exitY=0.5;exitDx=0;exitDy=0;exitPerimeter=0;entryX=0.7;entryY=0;entryDx=0;entryDy=0;entryPerimeter=0;endArrow=none;endFill=0;" parent="sTx_IjuxGFLNHT0JRAtc-465" source="sTx_IjuxGFLNHT0JRAtc-467" target="sTx_IjuxGFLNHT0JRAtc-466" edge="1">
          <mxGeometry relative="1" as="geometry" />
        </mxCell>
        <mxCell id="sTx_IjuxGFLNHT0JRAtc-470" value="" style="endArrow=none;html=1;rounded=0;" parent="sTx_IjuxGFLNHT0JRAtc-465" edge="1">
          <mxGeometry width="50" height="50" relative="1" as="geometry">
            <mxPoint x="50" as="sourcePoint" />
            <mxPoint x="50" y="20" as="targetPoint" />
          </mxGeometry>
        </mxCell>
        <mxCell id="sTx_IjuxGFLNHT0JRAtc-471" value="" style="endArrow=none;html=1;rounded=0;" parent="sTx_IjuxGFLNHT0JRAtc-465" edge="1">
          <mxGeometry width="50" height="50" relative="1" as="geometry">
            <mxPoint x="50" y="99" as="sourcePoint" />
            <mxPoint x="50" y="119" as="targetPoint" />
          </mxGeometry>
        </mxCell>
        <mxCell id="sTx_IjuxGFLNHT0JRAtc-472" value="" style="group" parent="1" vertex="1" connectable="0">
          <mxGeometry x="1260" y="541" width="99.75" height="119" as="geometry" />
        </mxCell>
        <mxCell id="sTx_IjuxGFLNHT0JRAtc-473" value="" style="verticalLabelPosition=bottom;shadow=0;dashed=0;align=center;html=1;verticalAlign=top;shape=mxgraph.electrical.mosfets1.mosfet_ic_n;strokeColor=#000000;" parent="sTx_IjuxGFLNHT0JRAtc-472" vertex="1">
          <mxGeometry y="24" width="71" height="75" as="geometry" />
        </mxCell>
        <mxCell id="sTx_IjuxGFLNHT0JRAtc-474" value="" style="pointerEvents=1;fillColor=strokeColor;verticalLabelPosition=bottom;shadow=0;dashed=0;align=center;html=1;verticalAlign=top;shape=mxgraph.electrical.diodes.diode;rotation=-90;strokeColor=#000000;" parent="sTx_IjuxGFLNHT0JRAtc-472" vertex="1">
          <mxGeometry x="70" y="50" width="40" height="19.5" as="geometry" />
        </mxCell>
        <mxCell id="sTx_IjuxGFLNHT0JRAtc-475" style="edgeStyle=orthogonalEdgeStyle;rounded=0;orthogonalLoop=1;jettySize=auto;html=1;exitX=0.7;exitY=1;exitDx=0;exitDy=0;exitPerimeter=0;entryX=0;entryY=0.5;entryDx=0;entryDy=0;entryPerimeter=0;endArrow=none;endFill=0;" parent="sTx_IjuxGFLNHT0JRAtc-472" source="sTx_IjuxGFLNHT0JRAtc-473" target="sTx_IjuxGFLNHT0JRAtc-474" edge="1">
          <mxGeometry relative="1" as="geometry">
            <Array as="points">
              <mxPoint x="90" y="99" />
            </Array>
          </mxGeometry>
        </mxCell>
        <mxCell id="sTx_IjuxGFLNHT0JRAtc-476" style="edgeStyle=orthogonalEdgeStyle;rounded=0;orthogonalLoop=1;jettySize=auto;html=1;exitX=1;exitY=0.5;exitDx=0;exitDy=0;exitPerimeter=0;entryX=0.7;entryY=0;entryDx=0;entryDy=0;entryPerimeter=0;endArrow=none;endFill=0;" parent="sTx_IjuxGFLNHT0JRAtc-472" source="sTx_IjuxGFLNHT0JRAtc-474" target="sTx_IjuxGFLNHT0JRAtc-473" edge="1">
          <mxGeometry relative="1" as="geometry" />
        </mxCell>
        <mxCell id="sTx_IjuxGFLNHT0JRAtc-477" value="" style="endArrow=none;html=1;rounded=0;" parent="sTx_IjuxGFLNHT0JRAtc-472" edge="1">
          <mxGeometry width="50" height="50" relative="1" as="geometry">
            <mxPoint x="50" as="sourcePoint" />
            <mxPoint x="50" y="20" as="targetPoint" />
          </mxGeometry>
        </mxCell>
        <mxCell id="sTx_IjuxGFLNHT0JRAtc-478" value="" style="endArrow=none;html=1;rounded=0;" parent="sTx_IjuxGFLNHT0JRAtc-472" edge="1">
          <mxGeometry width="50" height="50" relative="1" as="geometry">
            <mxPoint x="50" y="99" as="sourcePoint" />
            <mxPoint x="50" y="119" as="targetPoint" />
          </mxGeometry>
        </mxCell>
        <mxCell id="sTx_IjuxGFLNHT0JRAtc-479" value="" style="endArrow=none;html=1;rounded=0;" parent="1" edge="1">
          <mxGeometry width="50" height="50" relative="1" as="geometry">
            <mxPoint x="1310" y="950" as="sourcePoint" />
            <mxPoint x="1310" y="660" as="targetPoint" />
          </mxGeometry>
        </mxCell>
        <mxCell id="sTx_IjuxGFLNHT0JRAtc-480" value="" style="endArrow=none;html=1;rounded=0;" parent="1" edge="1">
          <mxGeometry width="50" height="50" relative="1" as="geometry">
            <mxPoint x="1310" y="540" as="sourcePoint" />
            <mxPoint x="1310" y="360" as="targetPoint" />
          </mxGeometry>
        </mxCell>
        <mxCell id="sTx_IjuxGFLNHT0JRAtc-481" value="" style="endArrow=none;html=1;rounded=0;" parent="1" edge="1">
          <mxGeometry width="50" height="50" relative="1" as="geometry">
            <mxPoint x="1310" y="240" as="sourcePoint" />
            <mxPoint x="1310" y="100" as="targetPoint" />
          </mxGeometry>
        </mxCell>
        <mxCell id="sTx_IjuxGFLNHT0JRAtc-482" value="" style="endArrow=none;html=1;rounded=0;entryX=1;entryY=0.5;entryDx=0;entryDy=0;entryPerimeter=0;" parent="1" target="sTx_IjuxGFLNHT0JRAtc-495" edge="1">
          <mxGeometry width="50" height="50" relative="1" as="geometry">
            <mxPoint x="930" y="950" as="sourcePoint" />
            <mxPoint x="930" y="750" as="targetPoint" />
          </mxGeometry>
        </mxCell>
        <mxCell id="sTx_IjuxGFLNHT0JRAtc-483" value="" style="endArrow=none;html=1;rounded=0;" parent="1" edge="1">
          <mxGeometry width="50" height="50" relative="1" as="geometry">
            <mxPoint x="930" y="540" as="sourcePoint" />
            <mxPoint x="930" y="360" as="targetPoint" />
          </mxGeometry>
        </mxCell>
        <mxCell id="sTx_IjuxGFLNHT0JRAtc-484" value="" style="endArrow=none;html=1;rounded=0;" parent="1" edge="1">
          <mxGeometry width="50" height="50" relative="1" as="geometry">
            <mxPoint x="930" y="240" as="sourcePoint" />
            <mxPoint x="930" y="100" as="targetPoint" />
          </mxGeometry>
        </mxCell>
        <mxCell id="sTx_IjuxGFLNHT0JRAtc-487" value="" style="endArrow=none;html=1;rounded=0;entryX=0;entryY=0.645;entryDx=0;entryDy=0;entryPerimeter=0;" parent="1" edge="1">
          <mxGeometry width="50" height="50" relative="1" as="geometry">
            <mxPoint x="930" y="475" as="sourcePoint" />
            <mxPoint x="1120" y="474.03" as="targetPoint" />
          </mxGeometry>
        </mxCell>
        <mxCell id="sTx_IjuxGFLNHT0JRAtc-488" value="" style="rounded=1;whiteSpace=wrap;html=1;" parent="1" vertex="1">
          <mxGeometry x="320" y="580" width="150" height="140" as="geometry" />
        </mxCell>
        <mxCell id="sTx_IjuxGFLNHT0JRAtc-489" value="" style="rounded=1;whiteSpace=wrap;html=1;" parent="1" vertex="1">
          <mxGeometry x="340" y="590" width="110" height="70" as="geometry" />
        </mxCell>
        <mxCell id="sTx_IjuxGFLNHT0JRAtc-499" style="edgeStyle=orthogonalEdgeStyle;rounded=1;orthogonalLoop=1;jettySize=auto;html=1;flowAnimation=0;curved=0;strokeWidth=3;strokeColor=#FF0F0F;" parent="1" source="sTx_IjuxGFLNHT0JRAtc-491" edge="1">
          <mxGeometry relative="1" as="geometry">
            <mxPoint x="930" y="770" as="targetPoint" />
            <Array as="points">
              <mxPoint x="360" y="840" />
              <mxPoint x="630" y="840" />
              <mxPoint x="630" y="770" />
            </Array>
          </mxGeometry>
        </mxCell>
        <mxCell id="sTx_IjuxGFLNHT0JRAtc-549" value="&lt;font style=&quot;font-size: 16px;&quot;&gt;Id&lt;/font&gt;" style="edgeLabel;html=1;align=center;verticalAlign=middle;resizable=0;points=[];" parent="sTx_IjuxGFLNHT0JRAtc-499" vertex="1" connectable="0">
          <mxGeometry x="-0.3615" y="-3" relative="1" as="geometry">
            <mxPoint x="-2" y="-3" as="offset" />
          </mxGeometry>
        </mxCell>
        <mxCell id="sTx_IjuxGFLNHT0JRAtc-491" value="CH1&lt;div&gt;&lt;br&gt;&lt;/div&gt;&lt;div&gt;&lt;br&gt;&lt;/div&gt;&lt;div&gt;&lt;br&gt;&lt;/div&gt;" style="ellipse;whiteSpace=wrap;html=1;" parent="1" vertex="1">
          <mxGeometry x="350" y="679" width="20" height="21" as="geometry" />
        </mxCell>
        <mxCell id="sTx_IjuxGFLNHT0JRAtc-511" style="edgeStyle=orthogonalEdgeStyle;rounded=1;orthogonalLoop=1;jettySize=auto;html=1;endArrow=none;endFill=0;strokeWidth=3;curved=0;" parent="1" source="sTx_IjuxGFLNHT0JRAtc-492" target="sTx_IjuxGFLNHT0JRAtc-512" edge="1">
          <mxGeometry relative="1" as="geometry">
            <mxPoint x="670" y="610" as="targetPoint" />
            <Array as="points">
              <mxPoint x="395" y="810" />
              <mxPoint x="580" y="810" />
              <mxPoint x="580" y="725" />
            </Array>
          </mxGeometry>
        </mxCell>
        <mxCell id="sTx_IjuxGFLNHT0JRAtc-548" value="&lt;font style=&quot;font-size: 16px;&quot;&gt;Vds&lt;/font&gt;" style="edgeLabel;html=1;align=center;verticalAlign=middle;resizable=0;points=[];" parent="sTx_IjuxGFLNHT0JRAtc-511" vertex="1" connectable="0">
          <mxGeometry x="-0.0927" y="-2" relative="1" as="geometry">
            <mxPoint x="-4" y="-2" as="offset" />
          </mxGeometry>
        </mxCell>
        <mxCell id="sTx_IjuxGFLNHT0JRAtc-492" value="CH2&lt;div&gt;&lt;br&gt;&lt;/div&gt;&lt;div&gt;&lt;br&gt;&lt;/div&gt;&lt;div&gt;&lt;br&gt;&lt;/div&gt;" style="ellipse;whiteSpace=wrap;html=1;" parent="1" vertex="1">
          <mxGeometry x="385" y="679" width="20" height="21" as="geometry" />
        </mxCell>
        <mxCell id="sTx_IjuxGFLNHT0JRAtc-542" style="edgeStyle=orthogonalEdgeStyle;rounded=1;orthogonalLoop=1;jettySize=auto;html=1;strokeWidth=3;strokeColor=#FF0F0F;curved=0;" parent="1" edge="1">
          <mxGeometry relative="1" as="geometry">
            <mxPoint x="781" y="616" as="targetPoint" />
            <mxPoint x="430" y="696" as="sourcePoint" />
            <Array as="points">
              <mxPoint x="430" y="776" />
              <mxPoint x="510" y="776" />
              <mxPoint x="510" y="680" />
              <mxPoint x="781" y="680" />
            </Array>
          </mxGeometry>
        </mxCell>
        <mxCell id="sTx_IjuxGFLNHT0JRAtc-547" value="&lt;font style=&quot;font-size: 15px;&quot;&gt;Vgs&lt;/font&gt;" style="edgeLabel;html=1;align=center;verticalAlign=middle;resizable=0;points=[];" parent="sTx_IjuxGFLNHT0JRAtc-542" vertex="1" connectable="0">
          <mxGeometry x="0.0017" y="1" relative="1" as="geometry">
            <mxPoint x="-83" y="96" as="offset" />
          </mxGeometry>
        </mxCell>
        <mxCell id="sTx_IjuxGFLNHT0JRAtc-493" value="CH3&lt;div&gt;&lt;br&gt;&lt;/div&gt;&lt;div&gt;&lt;br&gt;&lt;/div&gt;&lt;div&gt;&lt;br&gt;&lt;/div&gt;" style="ellipse;whiteSpace=wrap;html=1;" parent="1" vertex="1">
          <mxGeometry x="420" y="679" width="20" height="21" as="geometry" />
        </mxCell>
        <mxCell id="sTx_IjuxGFLNHT0JRAtc-494" value="&lt;p style=&quot;line-height: 130%;&quot;&gt;&lt;font style=&quot;font-size: 23px;&quot;&gt;Osciloscopio&lt;/font&gt;&lt;/p&gt;" style="text;html=1;align=center;verticalAlign=middle;resizable=0;points=[];autosize=1;strokeColor=none;fillColor=none;" parent="1" vertex="1">
          <mxGeometry x="320" y="540" width="150" height="60" as="geometry" />
        </mxCell>
        <mxCell id="sTx_IjuxGFLNHT0JRAtc-496" style="edgeStyle=orthogonalEdgeStyle;rounded=0;orthogonalLoop=1;jettySize=auto;html=1;endArrow=none;endFill=0;" parent="1" source="sTx_IjuxGFLNHT0JRAtc-495" edge="1">
          <mxGeometry relative="1" as="geometry">
            <mxPoint x="930" y="650" as="targetPoint" />
          </mxGeometry>
        </mxCell>
        <mxCell id="sTx_IjuxGFLNHT0JRAtc-495" value="" style="pointerEvents=1;verticalLabelPosition=bottom;shadow=0;dashed=0;align=center;html=1;verticalAlign=top;shape=mxgraph.electrical.resistors.resistor_2;direction=south;" parent="1" vertex="1">
          <mxGeometry x="919.87" y="780" width="20" height="100" as="geometry" />
        </mxCell>
        <mxCell id="sTx_IjuxGFLNHT0JRAtc-502" style="edgeStyle=orthogonalEdgeStyle;rounded=1;orthogonalLoop=1;jettySize=auto;html=1;strokeColor=#CCCCCC;strokeWidth=3;curved=0;" parent="1" source="sTx_IjuxGFLNHT0JRAtc-501" edge="1">
          <mxGeometry relative="1" as="geometry">
            <mxPoint x="930" y="890" as="targetPoint" />
            <Array as="points">
              <mxPoint x="840" y="890" />
            </Array>
          </mxGeometry>
        </mxCell>
        <mxCell id="sTx_IjuxGFLNHT0JRAtc-501" value="" style="ellipse;whiteSpace=wrap;html=1;fillColor=none;fontColor=#333333;strokeColor=#CCCCCC;strokeWidth=3;" parent="1" vertex="1">
          <mxGeometry x="830" y="756" width="20" height="30" as="geometry" />
        </mxCell>
        <mxCell id="sTx_IjuxGFLNHT0JRAtc-507" value="" style="endArrow=none;html=1;rounded=0;entryX=0.5;entryY=1;entryDx=0;entryDy=0;" parent="1" edge="1">
          <mxGeometry width="50" height="50" relative="1" as="geometry">
            <mxPoint x="931" y="980" as="sourcePoint" />
            <mxPoint x="931" y="950" as="targetPoint" />
          </mxGeometry>
        </mxCell>
        <mxCell id="sTx_IjuxGFLNHT0JRAtc-508" value="" style="endArrow=none;html=1;rounded=0;" parent="1" edge="1">
          <mxGeometry width="50" height="50" relative="1" as="geometry">
            <mxPoint x="911" y="980" as="sourcePoint" />
            <mxPoint x="951" y="980" as="targetPoint" />
            <Array as="points">
              <mxPoint x="926" y="980" />
            </Array>
          </mxGeometry>
        </mxCell>
        <mxCell id="sTx_IjuxGFLNHT0JRAtc-509" value="" style="endArrow=none;html=1;rounded=0;" parent="1" edge="1">
          <mxGeometry width="50" height="50" relative="1" as="geometry">
            <mxPoint x="918.5" y="990" as="sourcePoint" />
            <mxPoint x="943.5" y="990" as="targetPoint" />
            <Array as="points">
              <mxPoint x="928.5" y="990" />
            </Array>
          </mxGeometry>
        </mxCell>
        <mxCell id="sTx_IjuxGFLNHT0JRAtc-510" value="" style="endArrow=none;html=1;rounded=0;" parent="1" edge="1">
          <mxGeometry width="50" height="50" relative="1" as="geometry">
            <mxPoint x="926" y="1000" as="sourcePoint" />
            <mxPoint x="936" y="1000" as="targetPoint" />
            <Array as="points">
              <mxPoint x="926" y="1000" />
            </Array>
          </mxGeometry>
        </mxCell>
        <mxCell id="sTx_IjuxGFLNHT0JRAtc-513" style="edgeStyle=orthogonalEdgeStyle;rounded=0;orthogonalLoop=1;jettySize=auto;html=1;strokeColor=#CCCCCC;strokeWidth=3;" parent="1" source="sTx_IjuxGFLNHT0JRAtc-512" edge="1">
          <mxGeometry relative="1" as="geometry">
            <mxPoint x="930" y="740" as="targetPoint" />
            <Array as="points">
              <mxPoint x="930" y="740" />
            </Array>
          </mxGeometry>
        </mxCell>
        <mxCell id="sTx_IjuxGFLNHT0JRAtc-512" value="Differential&lt;div&gt;Probe&lt;/div&gt;" style="rounded=1;whiteSpace=wrap;html=1;" parent="1" vertex="1">
          <mxGeometry x="610" y="700" width="90" height="50" as="geometry" />
        </mxCell>
        <mxCell id="sTx_IjuxGFLNHT0JRAtc-517" value="&lt;font style=&quot;font-size: 16px;&quot;&gt;Gate Driver&lt;/font&gt;" style="rounded=1;whiteSpace=wrap;html=1;" parent="1" vertex="1">
          <mxGeometry x="600" y="570" width="60" height="90" as="geometry" />
        </mxCell>
        <mxCell id="sTx_IjuxGFLNHT0JRAtc-518" value="&lt;font style=&quot;font-size: 16px;&quot;&gt;Gate Driver&lt;/font&gt;" style="rounded=1;whiteSpace=wrap;html=1;" parent="1" vertex="1">
          <mxGeometry x="1070" y="273.5" width="60" height="90" as="geometry" />
        </mxCell>
        <mxCell id="UyUsXmDgAOIlqEMMy3t8-6" style="edgeStyle=orthogonalEdgeStyle;rounded=0;orthogonalLoop=1;jettySize=auto;html=1;entryX=0;entryY=0.25;entryDx=0;entryDy=0;strokeColor=#FF9999;strokeWidth=2;" edge="1" parent="1" source="sTx_IjuxGFLNHT0JRAtc-519" target="UyUsXmDgAOIlqEMMy3t8-2">
          <mxGeometry relative="1" as="geometry">
            <Array as="points">
              <mxPoint x="560" y="330" />
              <mxPoint x="560" y="296" />
            </Array>
          </mxGeometry>
        </mxCell>
        <mxCell id="UyUsXmDgAOIlqEMMy3t8-3" style="edgeStyle=orthogonalEdgeStyle;rounded=0;orthogonalLoop=1;jettySize=auto;html=1;entryX=0;entryY=0.5;entryDx=0;entryDy=0;jumpStyle=arc;jumpSize=13;" edge="1" parent="1" source="sTx_IjuxGFLNHT0JRAtc-520" target="UyUsXmDgAOIlqEMMy3t8-1">
          <mxGeometry relative="1" as="geometry">
            <Array as="points">
              <mxPoint x="1030" y="435" />
              <mxPoint x="1030" y="620" />
            </Array>
          </mxGeometry>
        </mxCell>
        <mxCell id="UyUsXmDgAOIlqEMMy3t8-4" style="edgeStyle=orthogonalEdgeStyle;rounded=0;orthogonalLoop=1;jettySize=auto;html=1;exitX=1;exitY=0.25;exitDx=0;exitDy=0;entryX=0;entryY=0.5;entryDx=0;entryDy=0;jumpStyle=arc;jumpSize=13;" edge="1" parent="1">
          <mxGeometry relative="1" as="geometry">
            <mxPoint x="470" y="419" as="sourcePoint" />
            <mxPoint x="1070" y="320" as="targetPoint" />
            <Array as="points">
              <mxPoint x="470" y="426.5" />
              <mxPoint x="1030" y="426.5" />
              <mxPoint x="1030" y="320.5" />
            </Array>
          </mxGeometry>
        </mxCell>
        <mxCell id="UyUsXmDgAOIlqEMMy3t8-5" style="edgeStyle=orthogonalEdgeStyle;rounded=0;orthogonalLoop=1;jettySize=auto;html=1;exitX=1;exitY=0.25;exitDx=0;exitDy=0;entryX=0;entryY=0.5;entryDx=0;entryDy=0;" edge="1" parent="1" source="sTx_IjuxGFLNHT0JRAtc-520" target="UyUsXmDgAOIlqEMMy3t8-2">
          <mxGeometry relative="1" as="geometry" />
        </mxCell>
        <mxCell id="sTx_IjuxGFLNHT0JRAtc-520" value="Micro controller&lt;div&gt;Delfino&lt;/div&gt;" style="rounded=1;whiteSpace=wrap;html=1;" parent="1" vertex="1">
          <mxGeometry x="360" y="400" width="110" height="70" as="geometry" />
        </mxCell>
        <mxCell id="sTx_IjuxGFLNHT0JRAtc-524" style="edgeStyle=orthogonalEdgeStyle;rounded=0;orthogonalLoop=1;jettySize=auto;html=1;exitX=1;exitY=0.75;exitDx=0;exitDy=0;" parent="1" edge="1">
          <mxGeometry relative="1" as="geometry">
            <mxPoint x="470" y="457.3" as="sourcePoint" />
            <mxPoint x="600" y="630" as="targetPoint" />
            <Array as="points">
              <mxPoint x="470" y="445" />
              <mxPoint x="520" y="445" />
              <mxPoint x="520" y="630" />
              <mxPoint x="600" y="630" />
            </Array>
          </mxGeometry>
        </mxCell>
        <mxCell id="sTx_IjuxGFLNHT0JRAtc-526" value="" style="pointerEvents=1;verticalLabelPosition=bottom;shadow=0;dashed=0;align=center;html=1;verticalAlign=top;shape=mxgraph.electrical.resistors.resistor_2;" parent="1" vertex="1">
          <mxGeometry x="660" y="606" width="100" height="20" as="geometry" />
        </mxCell>
        <mxCell id="sTx_IjuxGFLNHT0JRAtc-527" value="" style="endArrow=none;html=1;rounded=0;entryX=0;entryY=0.72;entryDx=0;entryDy=0;entryPerimeter=0;exitX=1;exitY=0.5;exitDx=0;exitDy=0;exitPerimeter=0;" parent="1" source="sTx_IjuxGFLNHT0JRAtc-526" target="sTx_IjuxGFLNHT0JRAtc-444" edge="1">
          <mxGeometry width="50" height="50" relative="1" as="geometry">
            <mxPoint x="840" y="616" as="sourcePoint" />
            <mxPoint x="920" y="616" as="targetPoint" />
            <Array as="points">
              <mxPoint x="880" y="616" />
            </Array>
          </mxGeometry>
        </mxCell>
        <mxCell id="sTx_IjuxGFLNHT0JRAtc-514" style="edgeStyle=orthogonalEdgeStyle;rounded=1;orthogonalLoop=1;jettySize=auto;html=1;strokeWidth=3;strokeColor=#FF0F0F;curved=0;jumpStyle=arc;jumpSize=10;" parent="1" edge="1">
          <mxGeometry relative="1" as="geometry">
            <mxPoint x="930" y="540" as="targetPoint" />
            <mxPoint x="700" y="710" as="sourcePoint" />
            <Array as="points">
              <mxPoint x="701" y="710" />
              <mxPoint x="850" y="710" />
              <mxPoint x="850" y="540" />
            </Array>
          </mxGeometry>
        </mxCell>
        <mxCell id="sTx_IjuxGFLNHT0JRAtc-528" value="" style="pointerEvents=1;verticalLabelPosition=bottom;shadow=0;dashed=0;align=center;html=1;verticalAlign=top;shape=mxgraph.electrical.resistors.resistor_2;" parent="1" vertex="1">
          <mxGeometry x="740" y="308" width="100" height="21" as="geometry" />
        </mxCell>
        <mxCell id="sTx_IjuxGFLNHT0JRAtc-529" value="" style="endArrow=none;html=1;rounded=0;entryX=0;entryY=0.72;entryDx=0;entryDy=0;entryPerimeter=0;" parent="1" edge="1">
          <mxGeometry width="50" height="50" relative="1" as="geometry">
            <mxPoint x="840" y="318" as="sourcePoint" />
            <mxPoint x="880" y="318" as="targetPoint" />
            <Array as="points">
              <mxPoint x="880" y="318" />
            </Array>
          </mxGeometry>
        </mxCell>
        <mxCell id="sTx_IjuxGFLNHT0JRAtc-530" value="" style="pointerEvents=1;verticalLabelPosition=bottom;shadow=0;dashed=0;align=center;html=1;verticalAlign=top;shape=mxgraph.electrical.resistors.resistor_2;" parent="1" vertex="1">
          <mxGeometry x="1130" y="308" width="100" height="21" as="geometry" />
        </mxCell>
        <mxCell id="sTx_IjuxGFLNHT0JRAtc-531" value="" style="endArrow=none;html=1;rounded=0;entryX=0;entryY=0.72;entryDx=0;entryDy=0;entryPerimeter=0;" parent="1" edge="1">
          <mxGeometry width="50" height="50" relative="1" as="geometry">
            <mxPoint x="1220" y="318" as="sourcePoint" />
            <mxPoint x="1260" y="318" as="targetPoint" />
            <Array as="points">
              <mxPoint x="1260" y="318" />
            </Array>
          </mxGeometry>
        </mxCell>
        <mxCell id="sTx_IjuxGFLNHT0JRAtc-532" value="" style="pointerEvents=1;verticalLabelPosition=bottom;shadow=0;dashed=0;align=center;html=1;verticalAlign=top;shape=mxgraph.electrical.resistors.resistor_2;" parent="1" vertex="1">
          <mxGeometry x="1130" y="609" width="100" height="21" as="geometry" />
        </mxCell>
        <mxCell id="sTx_IjuxGFLNHT0JRAtc-533" value="" style="endArrow=none;html=1;rounded=0;entryX=0;entryY=0.72;entryDx=0;entryDy=0;entryPerimeter=0;" parent="1" edge="1">
          <mxGeometry width="50" height="50" relative="1" as="geometry">
            <mxPoint x="1220" y="619" as="sourcePoint" />
            <mxPoint x="1260" y="619" as="targetPoint" />
            <Array as="points">
              <mxPoint x="1260" y="619" />
            </Array>
          </mxGeometry>
        </mxCell>
        <mxCell id="sTx_IjuxGFLNHT0JRAtc-541" style="edgeStyle=orthogonalEdgeStyle;rounded=0;orthogonalLoop=1;jettySize=auto;html=1;exitX=1;exitY=1;exitDx=0;exitDy=0;exitPerimeter=0;endArrow=none;endFill=0;" parent="1" source="sTx_IjuxGFLNHT0JRAtc-540" edge="1">
          <mxGeometry relative="1" as="geometry">
            <mxPoint x="1310" y="474" as="targetPoint" />
            <Array as="points">
              <mxPoint x="1290" y="474" />
              <mxPoint x="1290" y="474" />
            </Array>
          </mxGeometry>
        </mxCell>
        <mxCell id="sTx_IjuxGFLNHT0JRAtc-540" value="" style="pointerEvents=1;verticalLabelPosition=bottom;shadow=0;dashed=0;align=center;html=1;verticalAlign=top;shape=mxgraph.electrical.inductors.inductor_3;" parent="1" vertex="1">
          <mxGeometry x="1120" y="466" width="100" height="8" as="geometry" />
        </mxCell>
        <mxCell id="sTx_IjuxGFLNHT0JRAtc-544" style="edgeStyle=orthogonalEdgeStyle;rounded=0;orthogonalLoop=1;jettySize=auto;html=1;exitX=0.5;exitY=1;exitDx=0;exitDy=0;strokeWidth=3;strokeColor=#CCCCCC;jumpStyle=arc;jumpSize=13;" parent="1" source="sTx_IjuxGFLNHT0JRAtc-543" edge="1">
          <mxGeometry relative="1" as="geometry">
            <mxPoint x="930" y="655.2" as="targetPoint" />
          </mxGeometry>
        </mxCell>
        <mxCell id="sTx_IjuxGFLNHT0JRAtc-543" value="" style="ellipse;whiteSpace=wrap;html=1;fillColor=none;fontColor=#333333;strokeColor=#CCCCCC;strokeWidth=3;rotation=-90;" parent="1" vertex="1">
          <mxGeometry x="770" y="640" width="20" height="30" as="geometry" />
        </mxCell>
        <mxCell id="sTx_IjuxGFLNHT0JRAtc-545" value="CB" style="text;html=1;align=center;verticalAlign=middle;resizable=0;points=[];autosize=1;strokeColor=none;fillColor=none;" parent="1" vertex="1">
          <mxGeometry x="279" y="482" width="40" height="30" as="geometry" />
        </mxCell>
        <mxCell id="sTx_IjuxGFLNHT0JRAtc-546" value="&lt;font style=&quot;font-size: 18px;&quot;&gt;CVR&lt;/font&gt;" style="text;html=1;align=center;verticalAlign=middle;resizable=0;points=[];autosize=1;strokeColor=none;fillColor=none;" parent="1" vertex="1">
          <mxGeometry x="934.87" y="810" width="60" height="40" as="geometry" />
        </mxCell>
        <mxCell id="UyUsXmDgAOIlqEMMy3t8-1" value="&lt;font style=&quot;font-size: 16px;&quot;&gt;Gate Driver&lt;/font&gt;" style="rounded=1;whiteSpace=wrap;html=1;" vertex="1" parent="1">
          <mxGeometry x="1070" y="574.5" width="60" height="90" as="geometry" />
        </mxCell>
        <mxCell id="UyUsXmDgAOIlqEMMy3t8-2" value="&lt;font style=&quot;font-size: 16px;&quot;&gt;Gate Driver&lt;/font&gt;" style="rounded=1;whiteSpace=wrap;html=1;" vertex="1" parent="1">
          <mxGeometry x="680" y="273.5" width="60" height="90" as="geometry" />
        </mxCell>
        <mxCell id="UyUsXmDgAOIlqEMMy3t8-9" style="edgeStyle=orthogonalEdgeStyle;rounded=0;orthogonalLoop=1;jettySize=auto;html=1;entryX=0;entryY=0.25;entryDx=0;entryDy=0;jumpStyle=arc;jumpSize=5;strokeColor=#FF9999;strokeWidth=2;" edge="1" parent="1" source="sTx_IjuxGFLNHT0JRAtc-519" target="sTx_IjuxGFLNHT0JRAtc-517">
          <mxGeometry relative="1" as="geometry">
            <Array as="points">
              <mxPoint x="550" y="360" />
              <mxPoint x="550" y="593" />
              <mxPoint x="600" y="593" />
            </Array>
          </mxGeometry>
        </mxCell>
        <mxCell id="UyUsXmDgAOIlqEMMy3t8-7" style="edgeStyle=orthogonalEdgeStyle;rounded=0;orthogonalLoop=1;jettySize=auto;html=1;exitX=1;exitY=0.25;exitDx=0;exitDy=0;entryX=0;entryY=0.25;entryDx=0;entryDy=0;strokeColor=#FF9999;jumpStyle=arc;jumpSize=13;strokeWidth=2;" edge="1" parent="1" source="sTx_IjuxGFLNHT0JRAtc-519" target="sTx_IjuxGFLNHT0JRAtc-518">
          <mxGeometry relative="1" as="geometry">
            <Array as="points">
              <mxPoint x="470" y="340" />
              <mxPoint x="640" y="340" />
              <mxPoint x="640" y="380" />
              <mxPoint x="1010" y="380" />
              <mxPoint x="1010" y="296" />
            </Array>
          </mxGeometry>
        </mxCell>
        <mxCell id="UyUsXmDgAOIlqEMMy3t8-10" style="edgeStyle=orthogonalEdgeStyle;rounded=0;orthogonalLoop=1;jettySize=auto;html=1;entryX=0;entryY=0.25;entryDx=0;entryDy=0;exitX=1;exitY=0.75;exitDx=0;exitDy=0;jumpStyle=arc;jumpSize=14;strokeColor=#FF9999;strokeWidth=2;" edge="1" parent="1" source="sTx_IjuxGFLNHT0JRAtc-519" target="UyUsXmDgAOIlqEMMy3t8-1">
          <mxGeometry relative="1" as="geometry">
            <Array as="points">
              <mxPoint x="470" y="350" />
              <mxPoint x="630" y="350" />
              <mxPoint x="630" y="390" />
              <mxPoint x="1050" y="390" />
              <mxPoint x="1050" y="597" />
            </Array>
          </mxGeometry>
        </mxCell>
        <mxCell id="sTx_IjuxGFLNHT0JRAtc-519" value="Power Supply" style="rounded=1;whiteSpace=wrap;html=1;" parent="1" vertex="1">
          <mxGeometry x="360" y="320" width="110" height="60" as="geometry" />
        </mxCell>
      </root>
    </mxGraphModel>
  </diagram>
</mxfile>
